<svg width="35" height="34" viewBox="0 0 35 34" fill="none" xmlns="http://www.w3.org/2000/svg">
<path fill-rule="evenodd" clip-rule="evenodd" d="M13.1488 0.273906C14.9505 -0.259761 16.981 0.344056 17.5375 2.49977C18.0941 4.65548 16.9497 5.98055 15.0871 6.85422C13.2244 7.72789 10.1872 5.76631 10.2252 3.97528C10.2632 2.18425 11.3472 0.807574 13.1488 0.273906Z" fill="#FF6638"/>
<path fill-rule="evenodd" clip-rule="evenodd" d="M22.7349 0C24.973 1.00307 26.1698 1.5803 26.325 1.7317C26.5579 1.95879 26.3339 2.21927 25.6076 3.24415C24.8813 4.26902 18.8081 13.0301 18.0472 14.0826C17.2863 15.1352 16.6088 15.9683 16.3882 16.1722C16.2411 16.3081 16.052 16.3503 15.8208 16.2987L12.6643 14.155C12.5197 13.8606 12.627 13.4966 12.9863 13.0629C13.5253 12.4124 20.2564 2.72351 21.1313 1.56843C21.7146 0.798383 22.2491 0.275572 22.7349 0ZM25.5057 7.42324C27.3079 7.13976 29.9571 8.24153 29.8862 10.5155C29.8153 12.7895 28.1608 14.7649 25.6081 14.8643C23.0553 14.9638 21.4017 12.5426 21.772 10.7777C22.1422 9.01285 23.7035 7.70672 25.5057 7.42324Z" fill="#FF4C16"/>
<path fill-rule="evenodd" clip-rule="evenodd" d="M0.104099 9.64151L0 6.45999H8.29024L9.79627 11.7399H35L32.1873 26.5644C17.1255 26.6134 9.66185 26.6134 9.79627 26.5644C9.93069 26.5154 8.63741 21.0907 5.91643 10.2903L0.104099 9.64151Z" fill="#0073E6"/>
<path fill-rule="evenodd" clip-rule="evenodd" d="M13.5386 28.6567C15.4813 28.6795 17.1155 29.995 17.0233 31.2551C16.9312 32.5153 16.4195 33.9823 14.0665 33.9999C11.7136 34.0174 10.8295 32.6085 10.8805 31.2551C10.9315 29.9018 11.596 28.634 13.5386 28.6567Z" fill="#FF6638"/>
<path fill-rule="evenodd" clip-rule="evenodd" d="M13.8563 30.6965C14.308 30.7019 14.6879 31.013 14.6665 31.3109C14.645 31.6089 14.5261 31.9558 13.979 31.96C13.432 31.9641 13.2264 31.631 13.2383 31.3109C13.2501 30.9909 13.4046 30.6911 13.8563 30.6965Z" fill="#FABC22"/>
<path fill-rule="evenodd" clip-rule="evenodd" d="M26.6775 28.6564C28.7022 28.6567 29.9385 30.7432 29.7844 31.2445C29.6303 31.7458 28.8834 33.951 26.9461 33.9985C25.0088 34.0461 23.5621 32.9378 23.6527 31.2445C23.7433 29.5512 24.6528 28.6561 26.6775 28.6564Z" fill="#FF8716"/>
<path fill-rule="evenodd" clip-rule="evenodd" d="M26.7125 30.6964C27.1832 30.6965 27.4707 31.1899 27.4348 31.3084C27.399 31.427 27.2254 31.9484 26.7749 31.9597C26.3245 31.9709 25.9882 31.7088 26.0092 31.3084C26.0303 30.908 26.2418 30.6964 26.7125 30.6964Z" fill="#FABC22"/>
</svg>
