<svg width="456" height="146" viewBox="0 0 456 146" fill="none" xmlns="http://www.w3.org/2000/svg">
<path d="M11.3188 134.428C11.3237 134.828 11.2496 135.226 11.1009 135.598C10.9522 135.97 10.7316 136.309 10.4519 136.595C10.1721 136.882 9.83866 137.111 9.4705 137.268C9.10234 137.426 8.70671 137.51 8.30621 137.515H3.08693C2.68643 137.52 2.28888 137.446 1.91698 137.297C1.54509 137.148 1.20614 136.928 0.919481 136.648C0.632826 136.368 0.404082 136.035 0.246316 135.667C0.0885501 135.298 0.00485444 134.903 0 134.502V121.113C0.00323477 120.712 0.0857357 120.315 0.242779 119.945C0.399821 119.575 0.628313 119.241 0.91513 118.959C1.20195 118.678 1.54145 118.457 1.91415 118.307C2.28684 118.158 2.68539 118.083 3.08693 118.088H4.72338C5.48495 117.064 6.11394 115.948 6.59538 114.766C7.16349 113.382 7.62357 111.956 7.97148 110.501C8.3558 108.951 8.66573 107.352 8.91367 105.703C9.16162 104.054 9.32279 102.418 9.43437 100.744L9.75669 95.9466C9.80666 95.1131 10.1698 94.3293 10.7733 93.7522C11.0679 93.4635 11.4168 93.236 11.7998 93.0828C12.1828 92.9296 12.5923 92.8537 13.0048 92.8596H35.8159C36.2227 92.8546 36.6263 92.9311 37.0031 93.0844C37.3799 93.2378 37.7222 93.465 38.0098 93.7527C38.2975 94.0403 38.5246 94.3826 38.678 94.7594C38.8314 95.1361 38.9078 95.5398 38.9028 95.9466V118.088H41.903C42.3035 118.083 42.701 118.157 43.0729 118.306C43.4448 118.455 43.7838 118.675 44.0704 118.955C44.3571 119.235 44.5858 119.568 44.7436 119.936C44.9014 120.305 44.9851 120.7 44.9899 121.101V134.49C44.9948 134.89 44.9208 135.288 44.772 135.66C44.6233 136.032 44.4028 136.371 44.123 136.657C43.8433 136.944 43.5098 137.173 43.1416 137.33C42.7735 137.488 42.3779 137.572 41.9774 137.577H36.7085C36.308 137.582 35.9104 137.508 35.5385 137.359C35.1666 137.21 34.8277 136.99 34.541 136.71C34.2544 136.43 34.0256 136.097 33.8679 135.729C33.7101 135.36 33.6264 134.965 33.6216 134.564V129.457H11.3064L11.3188 134.428ZM26.6419 104.228H21.2118L21.0631 105.691C20.7937 108.279 20.279 110.836 19.5258 113.328C19.039 114.986 18.3301 116.571 17.4182 118.039H26.6419V104.228Z" fill="#0073E6"/>
<path d="M60.7839 115.187C61.3064 116.831 62.4555 118.203 63.9824 119.005C65.632 119.846 67.4619 120.272 69.3132 120.245C70.508 120.255 71.7018 120.173 72.8837 119.997C73.9094 119.835 74.9151 119.565 75.8838 119.191C76.4552 118.979 77.0596 118.87 77.669 118.869C78.2576 118.846 78.84 118.995 79.346 119.296C79.852 119.598 80.2599 120.039 80.5204 120.567L81.7602 123.171C81.9875 123.624 82.1023 124.126 82.0949 124.634C82.1182 125.171 81.9943 125.704 81.7365 126.176C81.4786 126.648 81.0967 127.041 80.632 127.311C78.6338 128.468 76.467 129.305 74.2102 129.791C72.1661 130.173 70.091 130.364 68.0115 130.361C65.2144 130.399 62.4336 129.928 59.8045 128.973C57.4908 128.119 55.3799 126.793 53.6058 125.08C51.8643 123.355 50.508 121.28 49.6263 118.993C48.66 116.478 48.1763 113.803 48.2006 111.108C48.1877 108.56 48.6719 106.033 49.6263 103.67C50.5318 101.362 51.8842 99.2552 53.6058 97.4711C55.3644 95.6782 57.4749 94.2685 59.8045 93.3304C62.4153 92.297 65.2039 91.7873 68.0115 91.8303C70.3001 91.83 72.5693 92.2503 74.7061 93.0701C76.8069 93.8588 78.7315 95.0544 80.3696 96.5882C82.0077 98.122 83.327 99.964 84.252 102.009C85.2481 104.23 85.7473 106.641 85.7149 109.075C85.7315 110.295 85.6486 111.514 85.4669 112.72C85.3179 113.373 84.9612 113.96 84.4504 114.393C83.9861 114.862 83.3613 115.137 82.7024 115.162L60.7839 115.187ZM73.5283 107.067C73.5032 105.761 72.9641 104.518 72.0282 103.608C71.4419 103.05 70.745 102.622 69.9826 102.35C69.2202 102.079 68.4092 101.971 67.6024 102.033C65.9374 101.906 64.2781 102.343 62.8914 103.273C61.7416 104.264 60.8842 105.55 60.412 106.992L73.5283 107.067Z" fill="#0073E6"/>
<path d="M102.601 129.393C102.201 129.398 101.803 129.324 101.431 129.175C101.059 129.027 100.72 128.806 100.434 128.526C100.147 128.247 99.9182 127.913 99.7604 127.545C99.6026 127.177 99.5189 126.781 99.5141 126.381V105.033H92.0757C91.6752 105.037 91.2776 104.963 90.9057 104.815C90.5339 104.666 90.1949 104.445 89.9082 104.166C89.6216 103.886 89.3929 103.552 89.2351 103.184C89.0773 102.816 88.9936 102.42 88.9888 102.02V95.9329C88.9838 95.5261 89.0602 95.1225 89.2136 94.7457C89.3669 94.3689 89.5941 94.0266 89.8818 93.7389C90.1694 93.4513 90.5117 93.2241 90.8885 93.0707C91.2653 92.9174 91.6689 92.8409 92.0757 92.8459H119.201C119.605 92.8443 120.005 92.9222 120.379 93.0752C120.752 93.2282 121.092 93.4533 121.379 93.7377C121.665 94.022 121.893 94.36 122.049 94.7324C122.205 95.1048 122.286 95.5043 122.288 95.9081V101.97C122.29 102.374 122.212 102.774 122.059 103.148C121.906 103.522 121.681 103.861 121.396 104.148C121.112 104.435 120.774 104.663 120.401 104.819C120.029 104.975 119.63 105.056 119.226 105.057H111.787V126.331C111.792 126.732 111.718 127.129 111.57 127.501C111.421 127.873 111.2 128.212 110.921 128.499C110.641 128.785 110.307 129.014 109.939 129.172C109.571 129.33 109.175 129.413 108.775 129.418H108.701L102.601 129.393Z" fill="#0073E6"/>
<path d="M151.855 104.71C150.128 103.787 148.208 103.286 146.251 103.248C145.284 103.247 144.324 103.41 143.412 103.731C142.495 104.064 141.653 104.573 140.933 105.231C140.16 105.925 139.536 106.769 139.098 107.711C138.625 108.784 138.392 109.947 138.416 111.12C138.39 112.274 138.641 113.417 139.147 114.455C139.603 115.393 140.234 116.234 141.007 116.934C142.512 118.258 144.445 118.994 146.449 119.005C148.478 118.968 150.453 118.348 152.14 117.219C152.798 116.739 153.593 116.483 154.408 116.488C154.891 116.482 155.367 116.591 155.799 116.807C156.23 117.023 156.603 117.338 156.888 117.728L159.367 121.063C159.792 121.623 160.023 122.306 160.024 123.009C160.038 123.516 159.927 124.02 159.7 124.474C159.473 124.928 159.137 125.319 158.723 125.612C156.7 127.335 154.352 128.633 151.817 129.431C149.801 130.005 147.716 130.306 145.619 130.323C142.757 130.36 139.911 129.89 137.213 128.935C134.832 128.091 132.651 126.766 130.804 125.042C129.019 123.336 127.631 121.258 126.738 118.955C125.771 116.44 125.288 113.765 125.312 111.07C125.3 108.525 125.771 106.001 126.7 103.632C127.593 101.325 128.946 99.2247 130.677 97.4578C132.407 95.691 134.48 94.2948 136.767 93.3545C139.267 92.3271 141.949 91.8168 144.652 91.8544C146.859 91.8268 149.063 92.043 151.222 92.4991C153.438 93.0407 155.538 93.9772 157.421 95.2637C157.944 95.535 158.386 95.9413 158.7 96.4404C159.014 96.9395 159.188 97.5134 159.206 98.1027C159.204 98.656 159.035 99.1958 158.723 99.6523L156.367 103.545C156.1 104.044 155.701 104.46 155.213 104.746C154.726 105.033 154.168 105.179 153.603 105.169C152.99 105.173 152.387 105.015 151.855 104.71V104.71Z" fill="#0073E6"/>
<path d="M179.129 111.89V126.258C179.134 126.659 179.06 127.056 178.911 127.428C178.762 127.8 178.542 128.139 178.262 128.426C177.982 128.712 177.649 128.941 177.281 129.099C176.912 129.256 176.517 129.34 176.116 129.345H170.029C169.624 129.351 169.222 129.275 168.847 129.122C168.472 128.969 168.132 128.741 167.847 128.452C167.554 128.169 167.323 127.828 167.169 127.45C167.015 127.072 166.942 126.666 166.955 126.258V95.8846C166.95 95.4841 167.024 95.0866 167.173 94.7147C167.321 94.3428 167.542 94.0038 167.822 93.7172C168.101 93.4305 168.435 93.2018 168.803 93.044C169.171 92.8862 169.567 92.8025 169.967 92.7977H176.042C176.449 92.7927 176.852 92.8691 177.229 93.0225C177.606 93.1759 177.948 93.4031 178.236 93.6907C178.524 93.9784 178.751 94.3206 178.904 94.6974C179.057 95.0742 179.134 95.4779 179.129 95.8846V108.716L188.551 94.8308C188.994 94.2303 189.56 93.7315 190.212 93.368C190.87 92.9952 191.613 92.7988 192.369 92.7977H198.047C198.476 92.7862 198.901 92.8679 199.295 93.037C199.689 93.2061 200.042 93.4586 200.328 93.7771C200.9 94.3645 201.22 95.1517 201.221 95.9714C201.209 96.6479 200.984 97.3033 200.576 97.8434L192.826 107.996C192.276 108.717 192.266 109.714 192.801 110.447L195.878 114.654C196.928 116.272 198.498 117.483 200.328 118.088C201.271 118.209 202.145 118.646 202.808 119.328C203.278 120.138 203.49 121.072 203.415 122.006V126.965C203.404 127.631 203.143 128.268 202.684 128.75C202.25 129.271 201.642 129.619 200.973 129.729C200.539 129.729 200.142 129.829 199.733 129.853C199.324 129.878 198.952 129.853 198.494 129.853C197.469 129.846 196.447 129.738 195.444 129.531C194.335 129.275 193.27 128.858 192.282 128.291C191.118 127.646 190.05 126.841 189.109 125.899C187.904 124.686 186.828 123.353 185.898 121.919L179.129 111.89Z" fill="#0073E6"/>
<path d="M238.55 129.394C238.149 129.399 237.752 129.325 237.38 129.176C237.008 129.028 236.669 128.807 236.382 128.527C236.096 128.248 235.867 127.914 235.709 127.546C235.551 127.178 235.468 126.782 235.463 126.382V110.265L223.847 127.312C223.443 127.889 222.934 128.385 222.346 128.774C221.758 129.16 221.066 129.359 220.363 129.345H213.371C212.966 129.351 212.563 129.275 212.188 129.122C211.813 128.968 211.473 128.74 211.189 128.452C210.895 128.169 210.664 127.827 210.511 127.449C210.357 127.071 210.284 126.666 210.296 126.258V95.8843C210.291 95.4838 210.365 95.0862 210.514 94.7143C210.663 94.3424 210.883 94.0035 211.163 93.7168C211.443 93.4302 211.776 93.2014 212.145 93.0437C212.513 92.8859 212.908 92.8022 213.309 92.7973H219.384C219.79 92.7923 220.194 92.8688 220.571 93.0222C220.947 93.1755 221.29 93.4027 221.577 93.6904C221.865 93.978 222.092 94.3203 222.246 94.6971C222.399 95.0739 222.475 95.4775 222.47 95.8843V111.889L234.087 94.8305C234.49 94.2656 234.985 93.7713 235.55 93.3676C236.125 92.9823 236.804 92.7832 237.496 92.7973H244.562C244.969 92.7923 245.373 92.8688 245.75 93.0222C246.126 93.1755 246.469 93.4027 246.756 93.6904C247.044 93.978 247.271 94.3203 247.425 94.6971C247.578 95.0739 247.654 95.4775 247.649 95.8843V126.258C247.654 126.658 247.58 127.056 247.432 127.428C247.283 127.8 247.062 128.139 246.783 128.425C246.503 128.712 246.169 128.941 245.801 129.098C245.433 129.256 245.037 129.34 244.637 129.345H244.562L238.55 129.394Z" fill="#0073E6"/>
<path d="M284.841 129.394C284.441 129.399 284.043 129.325 283.671 129.176C283.299 129.027 282.96 128.807 282.674 128.527C282.387 128.247 282.158 127.914 282 127.546C281.843 127.178 281.759 126.782 281.754 126.381V110.265L270.138 127.311C269.734 127.889 269.225 128.385 268.638 128.774C268.049 129.16 267.358 129.358 266.654 129.344H259.712C259.311 129.349 258.914 129.275 258.542 129.127C258.17 128.978 257.831 128.757 257.544 128.478C257.258 128.198 257.029 127.864 256.871 127.496C256.713 127.128 256.63 126.732 256.625 126.332V95.9336C256.62 95.5268 256.696 95.1232 256.85 94.7464C257.003 94.3696 257.23 94.0273 257.518 93.7397C257.805 93.452 258.148 93.2248 258.524 93.0715C258.901 92.9181 259.305 92.8417 259.712 92.8467H265.724C266.131 92.8417 266.535 92.9181 266.912 93.0715C267.288 93.2248 267.631 93.452 267.918 93.7397C268.206 94.0273 268.433 94.3696 268.586 94.7464C268.74 95.1232 268.816 95.5268 268.811 95.9336V111.889L280.428 94.8302C280.831 94.2653 281.326 93.771 281.891 93.3674C282.465 92.982 283.145 92.7829 283.837 92.7971H290.903C291.31 92.7921 291.714 92.8685 292.091 93.0219C292.467 93.1753 292.81 93.4025 293.097 93.6901C293.385 93.9778 293.612 94.32 293.765 94.6968C293.919 95.0736 293.995 95.4773 293.99 95.884V126.257C293.995 126.658 293.921 127.056 293.772 127.427C293.624 127.799 293.403 128.138 293.123 128.425C292.844 128.712 292.51 128.94 292.142 129.098C291.774 129.256 291.378 129.34 290.978 129.344H290.903L284.841 129.394ZM283.056 76.8541C283.738 76.8035 284.423 76.9002 285.065 77.1376C285.707 77.3751 286.29 77.7477 286.775 78.2302C287.633 79.2212 288.076 80.504 288.015 81.813C287.986 82.8978 287.683 83.9577 287.135 84.8941C286.587 85.8304 285.81 86.6129 284.878 87.1687C282.795 88.6316 279.696 89.363 275.58 89.363C271.026 89.363 267.766 88.6316 265.799 87.1687C264.901 86.5898 264.161 85.7978 263.644 84.8633C263.127 83.9288 262.849 82.8809 262.836 81.813C262.79 80.5063 263.232 79.2293 264.076 78.2302C264.555 77.7394 265.137 77.3613 265.78 77.1232C266.423 76.8852 267.112 76.7933 267.795 76.8541C268.895 76.7557 269.994 77.0645 270.882 77.7219C271.535 78.3168 272.011 79.0804 272.258 79.9287C272.504 80.6103 272.893 81.2316 273.398 81.7511C274.033 82.275 274.847 82.5288 275.667 82.4577C276.036 82.4878 276.408 82.4404 276.758 82.3188C277.108 82.1971 277.429 82.0037 277.7 81.7511C278.166 81.2174 278.524 80.5985 278.754 79.9287C279.002 79.0782 279.483 78.314 280.142 77.7219C280.978 77.0918 282.012 76.7837 283.056 76.8541V76.8541Z" fill="#0073E6"/>
<path d="M331.293 126.307C331.298 126.707 331.224 127.105 331.076 127.477C330.927 127.848 330.706 128.187 330.427 128.474C330.147 128.761 329.813 128.989 329.445 129.147C329.077 129.305 328.681 129.389 328.281 129.394H322.194C321.793 129.398 321.396 129.324 321.024 129.176C320.652 129.027 320.313 128.806 320.026 128.527C319.74 128.247 319.511 127.913 319.353 127.545C319.195 127.177 319.112 126.782 319.107 126.381V95.9332C319.102 95.5264 319.178 95.1227 319.332 94.746C319.485 94.3692 319.712 94.0269 320 93.7392C320.288 93.4516 320.63 93.2244 321.007 93.071C321.383 92.9177 321.787 92.8412 322.194 92.8462H327.959C328.679 92.8624 329.386 93.0387 330.029 93.3626C330.673 93.6864 331.236 94.1495 331.678 94.7182L341.013 105.281L349.617 94.805C350.071 94.2344 350.626 93.7513 351.253 93.3793C351.865 93.019 352.564 92.8345 353.274 92.8462H358.716C359.123 92.8412 359.527 92.9177 359.904 93.071C360.28 93.2244 360.623 93.4516 360.91 93.7392C361.198 94.0269 361.425 94.3692 361.579 94.746C361.732 95.1227 361.808 95.5264 361.803 95.9332V126.307C361.808 126.707 361.734 127.105 361.585 127.477C361.437 127.848 361.216 128.187 360.936 128.474C360.657 128.761 360.323 128.989 359.955 129.147C359.587 129.305 359.191 129.389 358.791 129.394H352.691C352.288 129.395 351.887 129.317 351.514 129.164C351.14 129.011 350.8 128.786 350.514 128.502C350.227 128.217 349.999 127.879 349.843 127.507C349.687 127.135 349.606 126.735 349.604 126.331V111.455L342.773 119.265C342.512 119.572 342.187 119.818 341.821 119.987C341.455 120.156 341.057 120.244 340.653 120.244C340.26 120.245 339.871 120.166 339.509 120.013C339.147 119.859 338.819 119.635 338.546 119.352L331.318 111.479L331.293 126.307Z" fill="#0073E6"/>
<path d="M399.021 129.394C398.621 129.399 398.223 129.325 397.851 129.176C397.479 129.027 397.14 128.807 396.854 128.527C396.567 128.247 396.338 127.914 396.18 127.545C396.023 127.177 395.939 126.782 395.934 126.381V110.265L384.33 127.311C383.925 127.892 383.412 128.389 382.818 128.774C382.229 129.159 381.538 129.358 380.834 129.344H373.855C373.454 129.349 373.056 129.275 372.685 129.126C372.313 128.978 371.974 128.757 371.687 128.477C371.4 128.198 371.172 127.864 371.014 127.496C370.856 127.128 370.772 126.732 370.768 126.332V95.9333C370.763 95.5266 370.839 95.1229 370.992 94.7461C371.146 94.3694 371.373 94.0271 371.661 93.7394C371.948 93.4518 372.291 93.2246 372.667 93.0712C373.044 92.9179 373.448 92.8414 373.855 92.8464H379.855C380.262 92.8414 380.665 92.9179 381.042 93.0712C381.419 93.2246 381.761 93.4518 382.049 93.7394C382.336 94.0271 382.564 94.3694 382.717 94.7461C382.87 95.1229 382.947 95.5266 382.942 95.9333V111.889L394.558 94.83C394.982 94.2754 395.498 93.7974 396.083 93.4167C396.658 93.0314 397.337 92.8323 398.029 92.8464H405.096C405.503 92.8414 405.906 92.9179 406.283 93.0712C406.66 93.2246 407.002 93.4518 407.29 93.7394C407.577 94.0271 407.805 94.3694 407.958 94.7461C408.111 95.1229 408.188 95.5266 408.183 95.9333V126.307C408.188 126.707 408.114 127.105 407.965 127.477C407.816 127.849 407.596 128.188 407.316 128.474C407.036 128.761 406.703 128.99 406.334 129.147C405.966 129.305 405.571 129.389 405.17 129.394H398.971H399.021Z" fill="#0073E6"/>
<path d="M429.232 142.547C429.237 142.947 429.163 143.345 429.014 143.717C428.866 144.089 428.645 144.428 428.365 144.714C428.086 145.001 427.752 145.23 427.384 145.388C427.016 145.545 426.62 145.629 426.22 145.634H420.133C419.732 145.639 419.335 145.565 418.963 145.416C418.591 145.267 418.252 145.047 417.965 144.767C417.678 144.487 417.45 144.154 417.292 143.786C417.134 143.417 417.05 143.022 417.046 142.621V95.933C417.041 95.5262 417.117 95.1226 417.27 94.7458C417.424 94.369 417.651 94.0267 417.939 93.7391C418.226 93.4515 418.569 93.2243 418.945 93.0709C419.322 92.9175 419.726 92.8411 420.133 92.8461H426.554C426.901 92.8412 427.246 92.9046 427.568 93.0328C427.89 93.161 428.184 93.3514 428.433 93.5931C428.681 93.8349 428.88 94.1233 429.017 94.4418C429.154 94.7603 429.227 95.1027 429.232 95.4495V95.5363C430.447 94.4393 431.85 93.57 433.373 92.9701C435.284 92.207 437.329 91.836 439.386 91.8791C441.69 91.8539 443.973 92.3232 446.08 93.2552C448.076 94.1446 449.84 95.4807 451.237 97.1604C452.691 98.9168 453.808 100.926 454.535 103.086C455.355 105.481 455.774 107.994 455.775 110.525C455.787 113.178 455.303 115.81 454.349 118.285C453.445 120.624 452.094 122.763 450.37 124.583C448.611 126.394 446.502 127.829 444.171 128.798C441.611 129.861 438.86 130.389 436.088 130.348C434.843 130.346 433.6 130.251 432.369 130.063C431.294 129.916 430.244 129.628 429.245 129.207L429.232 142.547ZM429.232 117.616C430.022 118.112 430.884 118.484 431.786 118.719C432.818 118.932 433.87 119.028 434.923 119.004C436.023 119.092 437.128 118.922 438.151 118.506C439.173 118.091 440.084 117.442 440.811 116.612C442.099 114.952 442.77 112.897 442.708 110.797C442.759 108.852 442.113 106.952 440.886 105.442C440.226 104.694 439.404 104.107 438.482 103.726C437.56 103.346 436.563 103.182 435.567 103.247C434.339 103.297 433.136 103.614 432.042 104.174C430.948 104.735 429.99 105.527 429.232 106.496V117.616Z" fill="#0073E6"/>
<path d="M137.634 54.4335C124.763 59.0595 120.34 54.836 116.639 44.5408L111.881 31.3034C107.255 18.4331 111.479 14.0093 121.774 10.3088L135.011 5.55092C147.882 0.924937 152.305 5.14846 156.006 15.4436L160.764 28.681C165.39 41.5513 161.166 45.9752 150.871 49.6756L137.634 54.4335Z" fill="#F72A16"/>
<path d="M196.055 54.4335C208.925 59.0595 213.349 54.836 217.049 44.5408L221.807 31.3034C226.433 18.4331 222.21 14.0093 211.915 10.3088L198.677 5.55092C185.807 0.924937 181.383 5.14846 177.683 15.4436L172.925 28.681C168.299 41.5513 172.522 45.9752 182.817 49.6756L196.055 54.4335Z" fill="#F8BA22"/>
<path d="M259.719 54.4335C246.849 59.0595 242.425 54.836 238.725 44.5408L233.967 31.3034C229.341 18.4331 233.564 14.0093 243.859 10.3088L257.097 5.55092C269.967 0.924937 274.391 5.14846 278.091 15.4436L282.849 28.681C287.475 41.5513 283.252 45.9752 272.957 49.6756L259.719 54.4335Z" fill="#06C92E"/>
<path d="M318.141 54.4335C331.012 59.0595 335.436 54.836 339.136 44.5408L343.894 31.3034C348.52 18.4331 344.296 14.0093 334.001 10.3088L320.764 5.55092C307.894 0.924937 303.47 5.14846 299.769 15.4436L295.011 28.681C290.385 41.5513 294.609 45.9752 304.904 49.6756L318.141 54.4335Z" fill="#00C2FC"/>
</svg>
